<mxfile host="app.diagrams.net" modified="2024-04-29T10:28:50.575Z" agent="Mozilla/5.0 (Windows NT 10.0; Win64; x64) AppleWebKit/537.36 (KHTML, like Gecko) Chrome/123.0.0.0 Safari/537.36" version="24.2.8" etag="2ZQ9JhuMAeIpadqMpRtp" type="github">
  <diagram name="第 1 页" id="vIz3Q4-Fb4qWgdO1PyF4">
    <mxGraphModel>
      <root>
        <mxCell id="0" />
        <mxCell id="1" parent="0" />
      </root>
    </mxGraphModel>
  </diagram>
</mxfile>
